<?xml version="1.0" encoding="UTF-8" standalone="no"?>
<!-- Created with Inkscape (http://www.inkscape.org/) -->

<svg
   width="72.346962mm"
   height="29.279272mm"
   viewBox="0 0 72.346962 29.279272"
   version="1.1"
   id="svg1"
   xmlns="http://www.w3.org/2000/svg"
   xmlns:svg="http://www.w3.org/2000/svg">
  <defs
     id="defs1" />
  <g
     id="layer3"
     transform="translate(-50.392107,-100.19758)">
    <g
       id="g18">
      <g
         id="layer1">
        <g
           id="text1"
           style="font-size:53.3333px;line-height:50px;white-space:pre"
           transform="matrix(0.26458333,0,0,0.26458333,21.279671,18.97788)"
           aria-label="Nabo&#10;Teknikeren">
          <path
             style="font-weight:bold;font-family:helvetica;-inkscape-font-specification:helvetica;fill:#5aa6e0"
             d="m 113.10416,325.3498 h 8.41146 l 15.28645,26.79686 V 325.3498 h 7.47395 v 38.3854 h -8.02083 l -15.67707,-27.26561 v 27.26561 h -7.47396 z m 15.88541,-0.0781 z m 37.81248,24.66144 q -0.70313,0.44271 -1.43229,0.72917 -0.70313,0.26042 -1.95313,0.49479 l -1.66666,0.3125 q -2.34375,0.41667 -3.35937,1.01562 -1.71875,1.01563 -1.71875,3.15104 0,1.90104 1.04166,2.76042 1.06771,0.83333 2.57813,0.83333 2.39583,0 4.40104,-1.40625 2.03124,-1.40625 2.10937,-5.1302 z m -4.50521,-3.46354 q 2.05729,-0.26041 2.94271,-0.65104 1.58854,-0.67708 1.58854,-2.10937 0,-1.74479 -1.22396,-2.39583 -1.19791,-0.67709 -3.54166,-0.67709 -2.63021,0 -3.72396,1.30209 -0.78125,0.96354 -1.04166,2.60416 h -7.16146 q 0.23438,-3.72396 2.08333,-6.11979 2.94271,-3.74999 10.10417,-3.74999 4.66145,0 8.28124,1.84895 3.61979,1.84896 3.61979,6.97916 v 13.02083 q 0,1.35417 0.0521,3.28125 0.0781,1.45833 0.44271,1.97916 0.36458,0.52084 1.09375,0.85938 v 1.09375 h -8.07291 q -0.33854,-0.85938 -0.46875,-1.61458 -0.13021,-0.75521 -0.20833,-1.71875 -1.53646,1.66666 -3.54167,2.83854 -2.39583,1.3802 -5.41666,1.3802 -3.85417,0 -6.38021,-2.18749 -2.5,-2.21355 -2.5,-6.25 0,-5.23437 4.03646,-7.57812 2.21354,-1.27604 6.51041,-1.82292 z m 0.39063,-11.87499 z m 33.46352,0.13021 q 5.59895,0 8.74999,4.03645 3.17708,4.03646 3.17708,10.41666 0,6.61458 -3.12499,10.96354 -3.125,4.34896 -8.72396,4.34896 -3.51562,0 -5.65104,-1.40625 -1.27604,-0.83334 -2.76041,-2.91667 v 3.56771 h -7.26562 v -38.33331 h 7.39583 v 13.64582 q 1.40625,-1.97916 3.09895,-3.02083 2.00521,-1.30208 5.10417,-1.30208 z m -1.90104,23.64582 q 2.86458,0 4.45312,-2.31771 1.58854,-2.31771 1.58854,-6.09375 0,-3.02083 -0.78125,-4.99999 -1.48437,-3.75 -5.46875,-3.75 -4.03645,0 -5.54687,3.67187 -0.78125,1.95313 -0.78125,5.05208 0,3.64583 1.61458,6.04167 1.61459,2.39583 4.92188,2.39583 z m 31.87498,0.13021 q 3.25521,0 5,-2.31771 1.74479,-2.31771 1.74479,-6.58854 0,-4.27083 -1.74479,-6.56249 -1.74479,-2.31771 -5,-2.31771 -3.2552,0 -5.02604,2.31771 -1.74479,2.29166 -1.74479,6.56249 0,4.27083 1.74479,6.58854 1.77084,2.31771 5.02604,2.31771 z m 14.53124,-8.90625 q 0,6.25 -3.59374,10.70312 -3.59375,4.42708 -10.91146,4.42708 -7.3177,0 -10.91145,-4.42708 -3.59375,-4.45312 -3.59375,-10.70312 0,-6.14583 3.59375,-10.65103 3.59375,-4.50521 10.91145,-4.50521 7.31771,0 10.91146,4.50521 3.59374,4.5052 3.59374,10.65103 z m -14.5052,-14.99999 z"
             id="path17" />
          <path
             style="font-weight:bold;font-family:helvetica;-inkscape-font-specification:helvetica;fill:#22295e"
             d="m 141.12498,378.31092 v 6.79688 h -11.48437 v 31.58852 H 121.5677 V 385.1078 h -11.53645 v -6.79688 z m 11.35416,15.36458 q -2.57812,0 -4.01041,1.61458 -1.40625,1.61458 -1.77084,4.375 h 11.53646 q -0.1823,-2.94271 -1.79688,-4.45312 -1.58854,-1.53646 -3.95833,-1.53646 z m 0,-6.11979 q 3.54167,0 6.38021,1.32813 2.83854,1.32812 4.68749,4.1927 1.66667,2.52604 2.16146,5.85937 0.28646,1.95313 0.23438,5.625 H 146.5156 q 0.15625,4.27083 2.68229,5.98958 1.53646,1.06771 3.69792,1.06771 2.29166,0 3.72395,-1.30209 0.78125,-0.70312 1.38021,-1.95312 h 7.57812 q -0.28646,2.52604 -2.6302,5.13021 -3.64584,4.14062 -10.20833,4.14062 -5.41667,0 -9.55729,-3.48958 -4.14062,-3.48958 -4.14062,-11.35416 0,-7.36979 3.72396,-11.30208 3.74999,-3.93229 9.71353,-3.93229 z m 0.52083,0 z m 17.86458,-9.11458 h 7.29166 v 20.67707 l 9.24479,-10.67707 h 9.1927 l -9.92187,10.85937 10.31249,17.39582 H 188.026 l -6.79687,-12.13541 -3.07292,3.20312 v 8.93229 h -7.29166 z m 45.46872,9.19271 q 4.40104,0 7.18749,2.3177 2.8125,2.29167 2.8125,7.63021 v 19.11457 H 218.7291 V 399.4307 q 0,-2.23958 -0.59896,-3.43749 -1.09375,-2.1875 -4.16666,-2.1875 -3.77604,0 -5.18229,3.20312 -0.72917,1.69271 -0.72917,4.32291 v 15.36458 h -7.39583 V 388.363 h 7.16146 v 4.14062 q 1.43229,-2.18749 2.70833,-3.15104 2.29167,-1.71874 5.80729,-1.71874 z m -2.73437,-0.0781 z m 27.21352,-2.63021 h -7.52604 v -6.84895 h 7.52604 z m -7.52604,3.38542 h 7.52604 v 28.3854 h -7.52604 z m 14.63541,-9.86979 h 7.29166 v 20.67707 l 9.24479,-10.67707 h 9.1927 l -9.92187,10.85937 10.3125,17.39582 h -8.95833 l -6.79687,-12.13541 -3.07292,3.20312 v 8.93229 h -7.29166 z m 40.93747,15.23437 q -2.57812,0 -4.01041,1.61458 -1.40625,1.61458 -1.77083,4.375 h 11.53645 q -0.18229,-2.94271 -1.79687,-4.45312 -1.58855,-1.53646 -3.95834,-1.53646 z m 0,-6.11979 q 3.54167,0 6.38021,1.32813 2.83854,1.32812 4.6875,4.1927 1.66666,2.52604 2.16145,5.85937 0.28646,1.95313 0.23438,5.625 h -19.42707 q 0.15625,4.27083 2.68229,5.98958 1.53645,1.06771 3.69791,1.06771 2.29167,0 3.72396,-1.30209 0.78125,-0.70312 1.3802,-1.95312 h 7.57813 q -0.28646,2.52604 -2.63021,5.13021 -3.64583,4.14062 -10.20833,4.14062 -5.41666,0 -9.55728,-3.48958 -4.14063,-3.48958 -4.14063,-11.35416 0,-7.36979 3.72396,-11.30208 3.75,-3.93229 9.71353,-3.93229 z m 0.52084,0 z m 33.35935,0.0781 q 0.20833,0 0.33854,0.026 0.15625,0 0.65104,0.026 V 395.29 q -0.70312,-0.0781 -1.25,-0.10417 -0.54687,-0.026 -0.88541,-0.026 -4.47917,0 -6.01562,2.91667 -0.85938,1.64062 -0.85938,5.05208 v 13.5677 h -7.47395 v -28.3854 h 7.08333 v 4.94791 q 1.71875,-2.83854 2.99479,-3.8802 2.08333,-1.74479 5.41666,-1.74479 z m 16.53646,6.04166 q -2.57813,0 -4.01042,1.61458 -1.40625,1.61458 -1.77083,4.375 h 11.53645 q -0.18229,-2.94271 -1.79687,-4.45312 -1.58854,-1.53646 -3.95833,-1.53646 z m 0,-6.11979 q 3.54166,0 6.3802,1.32813 2.83854,1.32812 4.6875,4.1927 1.66666,2.52604 2.16145,5.85937 0.28646,1.95313 0.23438,5.625 h -19.42707 q 0.15625,4.27083 2.68229,5.98958 1.53646,1.06771 3.69791,1.06771 2.29167,0 3.72396,-1.30209 0.78125,-0.70312 1.38021,-1.95312 h 7.57812 q -0.28646,2.52604 -2.63021,5.13021 -3.64583,4.14062 -10.20833,4.14062 -5.41666,0 -9.55728,-3.48958 -4.14063,-3.48958 -4.14063,-11.35416 0,-7.36979 3.72396,-11.30208 3.75,-3.93229 9.71354,-3.93229 z m 0.52083,0 z m 33.67185,0.0781 q 4.40104,0 7.1875,2.3177 2.8125,2.29167 2.8125,7.63021 v 19.11457 h -7.60417 V 399.4307 q 0,-2.23958 -0.59896,-3.43749 -1.09374,-2.1875 -4.16666,-2.1875 -3.77604,0 -5.18229,3.20312 -0.72916,1.69271 -0.72916,4.32291 v 15.36458 h -7.39583 V 388.363 h 7.16145 v 4.14062 q 1.43229,-2.18749 2.70833,-3.15104 2.29167,-1.71874 5.80729,-1.71874 z m -2.73437,-0.0781 z"
             id="path18" />
        </g>
      </g>
      <g
         id="group-R5-9"
         transform="matrix(0.01300548,0,0,0.01300548,86.87356,62.301219)">
        <path
           id="path2-3"
           d="m 2774.91,560.801 c 78.18,250.398 -147,702.799 -134.24,968.899 9.29,193.6 23.21,436.2 -70.66,612.2 -51.97,97.4 -156.67,146.8 -223.64,232.1 -8.46,10.8 -16.71,21.8 -24.85,33 -205.46,133.8 -348.92,402.1 -326.75,642.2 3.69,40.2 16.83,56.2 46.7,61.1 -6.57,31.6 -12.13,63.4 -15.23,95.9 -4.09,43 -1.08,92.2 -20.78,131.9 -15.4,31 -11.12,60.8 3.39,83.9 9.08,356.3 46.16,708 128.74,1051 h -851.77 c -86.19,0 -156.06,-69.9 -156.06,-155.9 V 470.602 c 0,-86.204 69.87,-156.102 156.06,-156.102 h 1009.35 c 37.07,152 433.07,96.902 479.74,246.301"
           style="fill:#5aa6e0;fill-opacity:1;fill-rule:nonzero;stroke:none"
           transform="matrix(0.13333333,0,0,-0.13333333,0,4130.0267)" />
        <path
           id="path3-1"
           d="m 606.992,535.602 c -101.301,8.496 -204.199,7.5 -305.703,-0.204 -89.394,-6.398 -106.601,29.801 -106.398,111.7 2.394,1346.502 2.199,2692.802 0.996,4039.202 0,68.8 16.203,126.9 58.301,181.4 52.402,67.4 103.203,136.6 150,208.4 42.304,64.9 73.898,86.4 125.304,4.6 60,-95.6 131.797,-183.8 198.098,-275.4 29,-40 19,-86.6 19.195,-130.6 0.703,-673.1 0.305,-1346.3 0.305,-2019.6 0.398,-660.8 -3.098,-1321.8 3.398,-1982.799 1.004,-117.5 -36.496,-145.602 -143.496,-136.699 z M 1190.69,1344.3 c -7.5,105.8 -6.3,212.5 -0.91,318.3 3.61,68.5 -16.09,108.3 -60,121.2 -7.59,2.2 -16.09,3.6 -25.29,4.3 -13.49,0.8 -28.6,0 -45.4,-2.6 -94.402,-14.6 -121.395,18.4 -120.399,115.8 5.497,502.2 5.098,1004.6 0.196,1506.8 -0.899,94 20.898,134.8 118.503,117.8 17.5,-3 33.1,-4.2 47.1,-3.7 9.2,0.3 17.7,1.5 25.29,3.7 47.81,12.4 65.31,56.1 58.72,129.6 -7.5,85.1 -7.01,172 0.99,257 7.5,80.3 -8,132 -59.71,148.1 -7.59,2.4 -15.99,4.1 -25.29,4.9 -17.9,1.7 -38.8,0.4 -63.3,-4 -78.495,-14.5 -104.502,15.6 -102.002,97.5 6.007,204.1 2.199,408.4 1.605,612.6 0,32.1 6.395,71.9 -9.406,95 -110.696,161.7 -220,325.3 -343.094,477.6 C 510.488,5440.8 415.09,5425.6 333.086,5318 260.488,5223 198.789,5119.4 124.395,5025.9 21.4922,4896.6 -10.3125,4754.4 2.79297,4591.2 7.1875,4536.8 7.39063,636.102 4.1875,453.102 2.58594,353 43.3867,313.5 141.688,314.699 c 220.304,2.903 440.8,3.301 661.3,-0.101 97.5,-1.598 141.297,33.504 139.403,135.3 -4.2,216.403 5.695,433.204 -4.004,649.102 -5.301,118 19.004,176.3 148.403,149.4 6.1,-1.1 12.1,-2.2 17.7,-2.9 9.2,-1.1 17.5,-1.5 25.29,-0.8 45.11,2.6 65.51,33.5 60.91,99.6"
           style="fill:#5ca7e0;fill-opacity:1;fill-rule:nonzero;stroke:none"
           transform="matrix(0.13333333,0,0,-0.13333333,0,4130.0267)" />
        <path
           id="path4-9"
           d="M 6603.35,4315.3 V 2596.1 c 0,-50.4 -20.4,-95.8 -53.4,-129 -33.1,-33 -78.51,-53.4 -128.91,-53.4 0,0 -555.49,28.3 -545.59,42.9 90.1,133.8 137.2,294.6 170.99,450.8 46.11,213.7 63.01,434.6 52.1,652.9 4.6,10.6 9.2,21.3 13.61,32.1 2.6,6.2 5.1,12.5 7.6,18.7 2.9,7.2 5.7,14.4 8.5,21.7 3.1,8 6.1,16.2 9.09,24.2 51.71,140.9 83.81,287.1 90.91,437.1 4.2,87.6 -9.4,171.8 -35.3,252.9 -9.1,28.7 -19.81,56.8 -31.8,84.6 -6,13.9 -12.3,27.7 -18.9,41.4 h 370.2 c 7.3,-4.2 14.2,-8.9 20.69,-14 2.1,-1.6 4.01,-3.2 6.01,-4.9 1.49,-1.3 3,-2.5 4.39,-3.8 2.21,-2 4.31,-4 6.41,-6.1 33,-33.1 53.4,-78.5 53.4,-128.9"
           style="fill:#5aa6e0;fill-opacity:1;fill-rule:nonzero;stroke:none"
           transform="matrix(0.13333333,0,0,-0.13333333,0,4130.0267)" />
        <path
           id="path5-4"
           d="M 7190.15,4317.1 V 470.5 c 0,-86.199 -69.91,-156 -156.1,-156 h -1514.9 c -67.2,75.602 -141.1,153.301 -169.4,251.199 -28,97.602 -7.1,202.102 -28.4,300.899 -16.11,74.703 -54.91,139.302 -97.2,201.702 -33.8,50.3 -71.41,100.5 -70.7,163.5 1,104.4 47.7,219.9 68.7,321.9 22.4,110.8 40.9,222.8 49.1,335.3 0.7,9.6 4.9,154.2 1.4,215.1 18.5,4.9 46,23.7 62,29.1 44,14.3 90.59,21 135.7,31.7 133,31.7 250.1,107.9 340.5,208.8 h 610.19 c 122.81,0 222.31,99.6 222.31,222.4 v 1719.2 c 0,61.7 -25.1,117.5 -65.7,157.7 h 456.4 c 86.19,0 156.1,-69.8 156.1,-155.9"
           style="fill:#5aa6e0;fill-opacity:1;fill-rule:nonzero;stroke:none"
           transform="matrix(0.13333333,0,0,-0.13333333,0,4130.0267)" />
        <path
           id="path6-7"
           d="m 8018.69,535.398 c -101.5,7.704 -204.39,8.7 -305.7,0.204 -106.9,-8.903 -144.49,19.199 -143.5,136.699 6.51,660.999 3.1,1321.999 3.4,1982.799 0,673.3 -0.3,1346.5 0.3,2019.6 0.2,44 -9.8,90.6 19.3,130.6 66.3,91.6 138,179.8 198,275.4 51.4,81.8 83.01,60.3 125.3,-4.6 46.8,-71.8 97.6,-141 150,-208.4 42.1,-54.5 58.3,-112.6 58.3,-181.4 -1.2,-1346.4 -1.4,-2692.7 1,-4039.202 0.2,-81.899 -17,-118.098 -106.4,-111.7 z m 177,4490.502 c -74.5,93.5 -136.2,197.1 -208.8,292.1 -82,107.6 -177.3,122.8 -255.2,26.2 -123.1,-152.3 -232.39,-315.9 -343.1,-477.6 -15.8,-23.1 -9.29,-62.9 -9.29,-95 -0.71,-204.2 -4.52,-408.5 1.49,-612.6 2.5,-81.9 -23.51,-112 -102,-97.5 -24.49,4.4 -45.4,5.7 -63.3,4 -9.3,-0.8 -17.6,-2.5 -25.3,-4.9 -51.69,-16.1 -67.1,-67.8 -59.7,-148.1 8.01,-85 8.49,-171.9 1.1,-257 -6.7,-73.5 10.8,-117.2 58.6,-129.6 7.7,-2.2 16.2,-3.4 25.3,-3.7 14,-0.5 29.6,0.7 47.1,3.7 97.6,17 119.4,-23.8 118.5,-117.8 -4.9,-502.2 -5.2,-1004.6 0.2,-1506.8 0.99,-97.4 -26,-130.4 -120.4,-115.8 -16.8,2.6 -31.91,3.4 -45.4,2.6 -9.1,-0.7 -17.6,-2.1 -25.3,-4.3 -43.8,-12.9 -63.6,-52.7 -60,-121.2 5.4,-105.8 6.61,-212.5 -0.8,-318.3 -4.61,-66.1 15.8,-97 60.8,-99.6 7.8,-0.7 16.2,-0.3 25.3,0.8 5.7,0.7 11.6,1.8 17.7,2.9 129.4,26.9 153.7,-31.4 148.4,-149.4 -9.6,-215.898 0.21,-432.699 -4,-649.102 -1.9,-101.796 42,-136.898 139.4,-135.3 220.5,3.402 441,3.004 661.3,0.101 98.3,-1.199 139.1,38.301 137.6,138.403 -3.3,183 -3.1,4083.698 1.3,4138.098 13.1,163.2 -18.69,305.4 -121.5,434.7"
           style="fill:#5ca7e0;fill-opacity:1;fill-rule:nonzero;stroke:none"
           transform="matrix(0.13333333,0,0,-0.13333333,0,4130.0267)" />
        <path
           id="path7-8"
           d="m 2061.29,3112.3 c 58.79,1.7 117.6,3.2 176.3,5.6 71.5,2.7 142.9,6.3 214.4,12.1 50.4,4 50.4,-19.2 52.5,-54.6 8.1,-141.8 32.1,-282.9 21.1,-437.6 -96.3,44.9 -143.9,111.2 -166.3,197.7 -10.7,41.7 -30.1,82.5 -77.91,77.9 -3.18,-0.4 -6.09,-0.7 -8.99,-1.4 -45,-9.9 -38.9,-58.5 -39.9,-94.2 -3.3,-126.3 74.4,-196 155.5,-263.3 29.41,-24.3 59.2,-48.3 85.7,-74.5 10.7,-10.7 28.7,-14.4 43.9,-20.2 62.19,-23.3 41.1,-79.1 30.6,-113.6 -1,-3.6 -2.4,-6.5 -3.9,-9 -15.69,-26 -54.4,-4.8 -80.1,2.9 -49.7,14.7 -97.5,37.4 -142.4,66.7 l -0.2,0.2 h -0.09 c -1.21,0.8 -2.31,1.5 -3.51,2.3 -3.6,2.2 -7.1,4.6 -10.6,7.2 -1.2,0.8 -2.4,1.6 -3.6,2.5 -2.9,2 -5.9,4.1 -8.8,6.3 -3.2,2.3 -6.3,4.6 -9.5,7.1 -2.41,1.6 -4.7,3.5 -7.1,5.4 -3.1,2.3 -6.11,4.7 -9.1,7.2 -2.9,2.2 -5.7,4.5 -8.5,6.9 -5.6,4.6 -11.1,9.3 -16.5,14.2 l -2.6,2.3 c -3.8,3.2 -7.5,6.6 -11.1,10.1 l -2.5,2.4 c -3.4,3.1 -6.7,6.3 -10.01,9.5 -4.59,4.5 -9.19,9.1 -13.59,13.8 -5.2,5.3 -10.21,10.7 -15.1,16.1 -2.49,2.7 -4.99,5.4 -7.4,8.2 -2.5,2.8 -5,5.6 -7.3,8.4 -2.5,2.8 -4.9,5.6 -7.2,8.5 -4.79,5.7 -9.5,11.4 -13.99,17.3 -3.61,4.6 -7.21,9.2 -10.7,13.9 -1.92,2.5 -3.8,5 -5.61,7.6 -4.49,6.2 -9,12.4 -13.31,18.8 -3.18,4.5 -6.18,9.1 -9.29,13.7 l -0.3,0.5 c -4.2,6.2 -8.2,12.5 -12.01,18.9 -5.89,9.5 -11.59,19.2 -16.99,28.9 -3.7,6.5 -7.3,13.1 -10.7,19.7 -2.6,5 -5.1,10 -7.6,15 -2.5,5 -4.9,10 -7.3,15.1 -2.41,5 -4.7,10.1 -6.89,15.2 -2.32,5.1 -4.51,10.2 -6.61,15.3 -2.9,6.9 -5.7,13.8 -8.3,20.7 -1.3,3.5 -2.6,6.9 -3.9,10.4 v 0.1 c -2.61,6.9 -4.99,13.9 -7.3,20.8 l -0.1,0.3 c -1.1,3.2 -2.1,6.5 -3.09,9.7 -1.22,3.9 -2.5,7.9 -3.61,11.8 -1.2,3.9 -2.4,7.9 -3.4,11.8 -1.2,4 -2.2,7.9 -3.2,11.9 -1.1,3.9 -2,7.9 -3,11.8 -1.1,4.4 -2.09,8.7 -3,13.1 -2.21,9.8 -4.09,19.7 -5.79,29.6 -0.61,3 -1.01,6.1 -1.61,9.2 l -0.11,0.8 c -0.59,4.4 -1.28,8.9 -1.89,13.3 -0.5,3.6 -0.9,7.3 -1.3,10.9 l -0.3,2 -0.2,2 c -0.4,3.8 -0.8,7.5 -1.1,11.3 -0.4,4.4 -0.8,8.8 -1.1,13.2 -0.6,8.9 -1,17.7 -1.19,26.5 -0.11,4.3 -0.21,8.7 -0.21,13 0,16.7 0.8,33.3 2.29,49.7 0.31,3 0.61,5.9 1.01,8.7 0.6,4.1 1.3,7.9 2.1,11.5 4.6,19.9 13.49,31.2 28.5,37 1.5,0.7 3,1.2 4.6,1.6 3.2,1.1 6.7,1.9 10.5,2.5 5.9,1.1 12.5,1.6 19.8,1.8 M 6456.9,4291.7 c -68.51,-12.3 -93.82,17 -106.91,91.6 -5.5,30.6 -12.29,60.5 -20.4,89.8 -2.3,8.3 -4.7,16.5 -7.2,24.6 -4,13.5 -8.41,26.8 -13,40 -59.8,171.7 -162.4,323.9 -278.2,462.9 -132.8,159.6 -249.7,332.2 -430.3,457.5 -35.4,24.7 -69.51,50.5 -103.5,76.3 -109,82.5 -216.6,162.9 -360.3,188.8 -53.21,9.6 -107.8,38.2 -150.29,72.4 -14.61,11.7 -30.71,24.8 -41.61,38.9 -3.3,4.1 -6,8.3 -8.2,12.8 -7.6,14.9 -7.5,31.1 8.2,47.4 3.7,4.2 8.7,8.5 14.8,12.7 -5,-1 -9.9,-2.2 -14.8,-3.5 -56.1,-13.8 -109.3,-37.4 -162.7,-59.7 -48,-20.1 -94,-37.7 -129.7,-76.7 -18.7,-20.2 -35.09,-42.8 -51.6,-65.4 4.3,1.2 8.5,2.2 13,3.4 -4.3,-11.6 -9.6,-23 -15.7,-34.5 -59.51,-112.6 -202.3,-225 -352.8,-283.6 -54.5,-21.1 -110.1,-35.2 -163,-39.6 -267.6,-22.1 -474.8,80.5 -633.6,316.2 -4.1,6.4 -8.39,12.7 -12.59,19.4 35.89,-8.4 70.19,-16.2 102.99,-23.3 -48.6,50.1 -93.7,104.2 -147,148.4 -14.3,12.1 -29.1,23.3 -44.8,33.5 -27.2,17.8 -57.11,29.4 -88.5,36.4 -54.41,12.4 -113.89,11.9 -173.1,8 24,-23.7 32,-42 23.1,-59.7 -10.4,-20.8 -43.99,-40.6 -102.01,-66.8 -31.79,-14.5 -61.99,-33.3 -95.19,-43.2 -139.2,-41.8 -262.71,-109.2 -374,-193 -86,-64.6 -165.1,-138.9 -238.5,-218.8 -171.9,-187 -248.9,-427.7 -314.1,-671.2 -3.49,-13.6 -7.1,-27 -10.5,-40.6 -10.21,-40 -19.9,-79.9 -28.7,-120 v -0.1 c -96.1,-426.9 -125.8,-861.6 -139.59,-1297.8 -6.3,-198.2 14.29,-398 103.19,-578.6 106.6,-216.6 276.9,-376.4 513.1,-434 124.81,-30.4 155,-81.8 153.3,-201 -4.2,-291 -2.9,-581.9 -0.1,-873 0.29,-33.5 0.6,-67 1,-100.401 0.5,-63.301 1.2,-126.699 1.9,-189.898 0.79,-63.102 -22.1,-90.301 -77.09,-117.699 -126.11,-62.903 -237.51,-143.301 -325.9,-246.004 -31.91,-37.098 -60.8,-76.996 -86.51,-120 L 2089.4,314.5 C 2074,288.301 2059.89,261 2046.99,232.398 1968.79,59.1992 2007.69,4.80078 2202.39,1.89844 c 224.4,-3.59766 448.99,-0.79688 673.4,-0.79688 V 0.398438 c 220.5,0 440.8,-0.699219 661.3,0.300781 165.1,0.703121 206.41,33.699181 217,193.800781 19.7,298.699 46.39,596.602 76.1,894.1 31.71,317.8 66.3,635.2 98.79,952.9 4.11,39.7 -0.69,83.5 58.31,90.8 70.9,9 68.2,-46 74.3,-86.2 48,-318.9 95.6,-638.2 142,-957.5 21.61,-146.702 42.7,-293.6 63.4,-440.498 22.31,-156.903 31.8,-315.704 51.99,-472.903 C 4329.59,94.6992 4340.39,2.09766 4451.8,1.69922 4929.39,0 5406.89,-1 5884.49,4 c 118,1.10156 160,59 120.71,167.199 -18.51,51 -40.61,98.801 -66.82,143.399 -77.89,132.601 -190.39,236.101 -341.09,304.5 -66.9,30.402 -148.5,55 -149.9,153.504 -1.4,90.097 -2.71,180.398 -4.1,270.498 -4.91,337.9 -9.79,675.9 -16.49,1013.9 -1.22,51.9 12.6,79.9 65.29,76.4 1.89,-0.2 3.7,-0.2 5.4,-0.4 173.3,-9.7 276.3,86.4 339.2,234.3 1.01,2.3 1.9,4.4 2.9,6.5 h -219.11 c -13.29,-19.6 -27.39,-38.7 -42.5,-57.5 -16.39,-20.4 -36.39,-48.6 -54.99,-33 -8.3,7.1 -16.8,13.1 -25.5,18 -52.74,30.7 -110.39,25.6 -167.85,20.5 -52.72,-4.7 -105.29,-9.3 -153.75,13.7 -41,19.5 -80.8,30.1 -127.39,7.5 -1.11,-0.5 -2.21,-1 -3.41,-1.7 -38.6,-18.2 -85.3,-30.3 -119.6,10.2 -6.19,7.3 -10.7,14.7 -13.8,22.3 h -1047.6 c -122.8,0 -222.3,99.6 -222.3,222.4 v 417.1 c -110.01,-0.1 -211.59,-0.3 -218.9,-0.5 -54.6,-1.5 -109.2,-1.5 -163.7,-0.8 -117,1 -233.99,5.6 -350.9,6.9 -153.7,1.9 -185,30.5 -185.7,188.4 -1.7,363.3 -0.2,726.6 -0.31,1090 0,36.7 3.41,74.3 -3.78,109.8 -8.02,41 -28.91,79.4 -78.81,80.1 -48.69,0.8 -75.7,-33.2 -83.7,-75 -11.21,-59.9 -18.4,-121.2 -19,-181.9 -3.11,-265.2 -6,-530.6 -2.9,-795.8 1,-79.8 -25.7,-104.3 -103.7,-105.3 -69.9,-1 -139.6,-9.8 -209.5,-16.1 -43.5,-4.1 -87,-7 -130.9,-6.5 -64.79,0.9 -83.3,20.2 -81.9,84 0.2,10.5 0.5,20.8 0.7,31.3 v 0.1 c 0.3,11.2 0.6,22.3 1,33.5 0,1.3 0,2.6 0.11,3.9 0.59,20.9 1.39,41.9 2.29,62.8 0.5,13.4 1.1,26.7 1.69,40.1 l 0.31,5.4 c 0.3,7 0.7,14 1.1,21 1.1,22.2 2.3,44.3 3.8,66.5 0.6,11.1 1.3,22.1 2.1,33.2 1.3,18.7 2.6,37.4 4.1,56.1 0.1,1.8 0.3,3.5 0.41,5.3 0.09,1.4 0.29,2.8 0.4,4.2 v 1 c 0.89,10.9 1.79,21.8 2.79,32.7 0.9,11.1 1.81,22 2.89,33 v 0.1 c 1.01,11 2.01,21.9 3.21,32.9 v 0.1 c 0.7,7.7 1.39,15.4 2.29,23.1 0.31,3.3 0.71,6.6 1.11,9.9 1,9.8 2,19.5 3.1,29.3 0.1,1.2 0.3,2.4 0.4,3.6 1.2,11 2.51,22 3.8,32.9 1.21,11 2.6,21.9 4,32.8 1.3,11 2.7,22 4.19,32.9 1.41,10.9 2.9,21.8 4.41,32.7 1.49,11 3.1,21.8 4.7,32.7 v 0.4 c 1.6,10.8 3.2,21.5 4.9,32.3 v 0.1 c 1.6,10.9 3.3,21.8 5.09,32.6 0.22,1.5 0.51,3 0.81,4.5 2.2,14.4 4.6,28.8 7.1,43.1 l 0.49,2.8 c 0.81,4.9 1.7,9.9 2.61,14.8 0.5,3.1 1.1,6.3 1.59,9.4 1.41,7.7 2.81,15.4 4.2,23 v 0.1 c 0.42,2 0.71,4 1.11,6 3.2,17.5 6.6,35 10.1,52.5 0.39,2.1 0.79,4.3 1.2,6.4 8.4,42.3 17.4,84.4 27.2,126.5 2.7,11.6 5.39,23.2 8.2,34.8 v 0.1 c 9.7,40.1 20.11,80 30.9,120 31.29,114.4 67.89,227.6 110.6,339.8 80.2,211.2 253.4,354 429.2,482.2 116,84.7 254.91,137.7 382.2,207.1 71.41,38.9 122.9,43 168.7,-17 8,-10.6 16.01,-23.2 23.8,-38 134.3,-253.8 357.3,-382.6 639.4,-409.8 112.7,-10.9 217.4,5.9 323.3,42.5 32.51,11 65.2,24.1 98,38.9 201.4,90.1 363.1,210.8 480.29,394.6 32.91,52 65.42,7.1 94.81,-1.4 8.91,-2.5 17.69,-5.2 26.4,-8.1 215.6,-67 395.6,-173.8 552.2,-306.7 134.6,-114.3 251.59,-248.1 358.7,-393.3 42.7,-58 83.99,-117.6 123.9,-178.7 32.8,-49.8 65,-100.6 96.4,-151.9 11.31,-18.4 22.21,-36.9 32.49,-55.6 7.41,-13.3 14.51,-26.6 21.21,-40 4.21,-8.2 8.2,-16.4 12.1,-24.6 1.1,-2.2 2.1,-4.4 3.11,-6.7 0.59,-1.4 1.19,-2.7 1.88,-4.1 4.71,-10.1 9.51,-20.3 14.01,-30.6 11.89,-27.8 22.6,-56 31.8,-84.6 25.89,-81.1 39.5,-165.3 35.3,-253 -7.1,-150 -39.2,-296.1 -90.9,-437 -3,-8.1 -6.01,-16.2 -9.1,-24.3 -2.8,-7.2 -5.6,-14.4 -8.5,-21.6 -2.51,-6.3 -5.01,-12.5 -7.6,-18.8 -4.5,-10.7 -9,-21.4 -13.7,-32 -8,-18.7 -16.5,-37.4 -25.3,-55.9 -36.7,-76.8 -64.8,-157.9 -98.89,-236 -58.42,-133.4 -115,-156 -259.11,-131.7 -81.1,13.6 -150.3,50.1 -217.8,90.2 -24.8,14.7 -49.31,29.8 -74,44.6 -20.7,12.2 -41.59,24.1 -63.1,35 -11.91,6.3 -24,12.2 -36.2,17.7 -41.51,18.5 -34.1,53.1 -19.3,86.6 1.7,3.8 3.4,7.4 5.1,11.1 0.9,1.9 1.8,3.8 2.8,5.6 1.7,3.6 3.5,7.2 5.2,10.7 2.6,5.3 5,10.4 7.19,15.3 l 0.11,0.1 c 20.4,46.2 41.8,92.3 63.4,138 36.7,78.4 74.1,156.4 108.8,235.5 23.1,53 44.89,106.4 64.41,160.6 45,125.6 35.78,241.4 0.48,351.8 -16.69,52.5 -39.39,103.9 -64.89,154.5 l -1.81,3.6 H 3864.09 c -50.4,0 -95.9,-20.4 -128.9,-53.4 -33,-33.1 -53.4,-78.6 -53.4,-129 V 2596.2 c 0,-50.5 20.4,-95.9 53.4,-129 33,-33 78.5,-53.4 128.9,-53.4 h 1042.1 c 2.1,21.3 10.4,43 19.1,64.2 27.7,67.3 52.5,135.8 83,201.9 20.4,44.8 30.21,83 -13.09,120.1 -38.51,32.6 -61.41,6.9 -95.11,-11.8 -40.9,-22.7 -90.9,-31.6 -138,-40.1 -33.7,-6.3 -79.81,-18.5 -95.9,23.3 -16.2,42.3 -9.39,89.6 36.4,117.7 80.9,49.4 161.3,100.3 242.6,149.1 54.9,32.9 110.11,65.2 166.4,95.7 7.7,4.1 16.2,6.9 25.31,8.1 21.79,3.4 47.08,-1 72.59,-11.7 9.2,-3.7 18.6,-8.5 27.6,-13.9 83.6,-50.7 170.7,-94.7 260.3,-133.7 79.5,-34.8 161.11,-65.4 244.09,-92.6 30.61,-10.2 81.81,-8.4 62.61,-44.9 -35,-163.7 -81.2,-305.6 -157.8,-431.4 h 774.8 c 50.39,0 95.8,20.4 128.9,53.4 33,33.1 53.4,78.5 53.4,129 v 1639.2 c -22.3,45.9 -67.4,70.3 -146.49,56.3"
           style="fill:#22295e;fill-opacity:1;fill-rule:nonzero;stroke:none"
           transform="matrix(0.13333333,0,0,-0.13333333,0,4130.0267)" />
        <path
           id="path8-4"
           d="m 5465.39,7058.6 c -31.6,-178.9 -170,-309.6 -347.5,-344.3 -121.41,-23.8 -243.11,-20 -363,4.3 -161.1,32.8 -273.7,131.7 -331.5,283 -37.1,96.6 -62.39,199.3 -79.89,301.6 -20.61,121.8 56.09,222.9 189.89,244.9 141.6,23.1 285.59,30.7 428.8,43.8 29.7,2.9 60.2,0.5 90.2,0.5 0.2,1.6 0.2,3.1 0.2,4.6 90.3,-5.1 180.7,-7.3 270.7,-16 107.8,-10.2 178.3,-87 173.9,-195 -4.8,-109.6 -12.8,-219.6 -31.8,-327.4 z m -431.5,-900.9 c -28.69,-26.9 -58.3,-52.5 -88.69,-76.8 -253.21,-202.5 -564.11,-311.2 -939.51,-312.9 -268.8,-1.2 -524.8,69.4 -746.5,196.7 -101,58 -195,127.7 -279.9,207.6 -131.1,123.8 -240.5,272 -321.1,439.8 51.8,-20.9 104.2,-50.4 160.31,-63.4 200.09,-46.6 400.49,-44.5 595.89,23.8 209.9,73.8 334.2,231.8 405.81,434.9 25.99,73.8 43.99,150.5 64.79,226 21.4,76.5 58.8,110.5 126.3,112.2 74.5,1.8 104,-20.1 124.6,-92 23.6,-83 44,-166.8 72.4,-248.1 74.2,-212.8 206.8,-371.6 428.1,-442.3 131.4,-42 266.6,-50.3 404,-40.3 109.5,8.1 215.4,25.8 310.4,84.8 7.71,4.6 15,9.7 22.5,14.5 l 6.4,-8.9 c -98.4,-178.5 -213.3,-331.2 -345.8,-455.6 z m -2503.4,1247.5 c 0,89 57.5,160 145.7,167.5 151.09,12.4 303.5,19.2 454.9,15.5 122.5,-2.9 246,-15.5 365.9,-40.1 141.8,-29.1 206.1,-138.3 178.21,-279.9 -15.81,-80.4 -32.71,-161.8 -60.51,-238.7 -69.4,-191.6 -210,-297.5 -412.3,-321 -46.9,-5.4 -94.2,-7.8 -141,-11.5 -103.5,2.7 -205.5,11.7 -294.6,70.2 -132.1,86.7 -203.29,212.3 -219.8,367.9 -9.4,89.6 -16.3,180 -16.5,270.1 z m 217.6,427.6 c 623.9,47.3 1186.3,258.8 1686,636.2 24,18 46.6,37.9 75.69,61.7 270.81,-245 541.51,-489.8 812.11,-734.6 l -5.41,-9.3 c -126.7,0 -253.49,3.7 -380,-1.1 -155.39,-5.7 -312.29,-10.5 -462.79,-55.1 -70.4,-20.5 -137.69,-55.4 -202.6,-91.1 -60.89,-33.6 -123.1,-57.1 -192.8,-57.8 -48.3,-0.7 -97.4,-5.1 -144.9,1.9 -50.8,7.3 -107.39,14.9 -148.61,42.2 -132.89,87.7 -278.39,133.4 -434.49,143.3 -187,12 -374.2,16.6 -561.6,23.4 -29.7,1.2 -59.8,-2.9 -89.7,-4.2 -0.2,34.2 17.7,42.1 49.1,44.5 z m 3120.6,-184.3 c -1.2,49.8 -22.8,79.6 -71.1,89.3 -53.9,10.7 -108.29,18.3 -162.9,24.8 -21.19,2.4 -30.1,7.8 -35.5,31.1 -37.6,165.4 -83.1,328.5 -162,480.3 -110.71,213.2 -272,365.2 -510.6,425.4 -13.09,3.2 -26.1,15.4 -34.5,27.2 -95.2,130.9 -212.79,234.8 -364,295.8 -305.5,123.3 -618.6,123.9 -931.8,41.7 -433.2,-114 -745.2,-389.5 -976.7,-763.7 -94.9,-153 -155.6,-321.2 -200.1,-495.3 -6.3,-25.1 -11.2,-43 -46.4,-43.8 -49.2,-1.4 -98.31,-12.6 -146.9,-22.8 -50.19,-10.7 -72.6,-40 -74,-92 -1,-38.1 0.9,-76.3 -0.5,-114.3 -1,-31.2 11.9,-54.4 39.1,-66.6 88.9,-40 113.1,-115.3 119.41,-204.4 7.29,-102.8 12.99,-206.5 31.19,-307.8 58.39,-324.1 199.8,-601.4 418.3,-833.8 44.5,-47.6 92.5,-93.5 143.5,-137.4 23.4,-20 46.7,-40.2 71.9,-62.2 1,-0.1 1.7,-0.3 2.7,-0.5 33.1,-34.2 84.3,-66.1 131.4,-92.8 55.9,-31.5 106.1,-55.1 112.4,-65.3 2,-0.7 4.6,-1.4 6.4,-2.4 10.4,-5.2 20.8,-10.3 31.2,-15.4 62.2,-30.5 125.4,-56.8 189.9,-79.6 132.2,-46.8 269.3,-76.9 410.9,-88.4 255.5,-21.3 502.5,9.5 738.51,95.4 62.39,22.7 124.09,49.4 185,79.9 3.19,3.4 83.3,52.2 153.49,96.4 2.7,1.7 5.4,3.4 8.21,5.1 40.89,25.6 77.29,48.9 91.28,59.5 5.41,4.4 11.71,7.1 18.21,8.8 2.8,3.6 6.1,7.5 10,10.7 87.2,70.7 168.6,147.4 242.11,231.6 23.99,27.3 46.89,55.4 68.99,84.3 229.9,300.2 338.7,641.1 343.3,1017.2 0.8,79 24.41,143.8 96,190.1 26,16.6 46.1,53.5 54.1,85 8.7,34 0.3,72.6 -0.5,108.9"
           style="fill:#22295e;fill-opacity:1;fill-rule:nonzero;stroke:none"
           transform="matrix(0.13333333,0,0,-0.13333333,0,4130.0267)" />
        <path
           id="path9-5"
           d="m 4022.78,6186.9 c -139.19,7.2 -261.05,50.9 -369.09,134.9 -30,23.3 -57.63,51.3 -50.58,91 3.71,21 22.92,48.8 41.42,55.1 20.29,7 53.76,0.2 71.08,-13.6 52.78,-42.1 105.9,-82 173.22,-95.7 145.05,-29.4 284.01,-25.2 402.28,80.7 4.87,4.3 10.36,8 15.59,11.9 41.42,31.4 75.24,32.7 101.83,4.1 28.95,-31.2 29.31,-82.3 -10.36,-111.4 -59.54,-43.6 -122.37,-85.8 -189.81,-114.5 -57.46,-24.5 -123.39,-29.1 -185.58,-42.5"
           style="fill:#22295e;fill-opacity:1;fill-rule:nonzero;stroke:none"
           transform="matrix(0.13333333,0,0,-0.13333333,0,4130.0267)" />
        <path
           id="path10-0"
           d="m 4669.58,7166.1 c 0.06,80.5 43.23,151.3 111.85,178.6 68.32,27.2 131.27,15.5 185.53,-34.2 56.96,-52.2 75.91,-144.4 47.41,-221.4 -30.82,-83.4 -112.25,-133.9 -193.81,-120.3 -89.11,14.8 -151.05,95.8 -150.98,197.3"
           style="fill:#22295e;fill-opacity:1;fill-rule:nonzero;stroke:none"
           transform="matrix(0.13333333,0,0,-0.13333333,0,4130.0267)" />
        <path
           id="path11-3"
           d="m 3359.36,7159.9 c -0.9,-107.5 -79.16,-192.7 -176.81,-192.4 -99.42,0.3 -178.37,83.3 -180.31,189.7 -2.04,112.2 72.43,198 175.3,202 101.66,4 182.77,-85 181.82,-199.3"
           style="fill:#22295e;fill-opacity:1;fill-rule:nonzero;stroke:none"
           transform="matrix(0.13333333,0,0,-0.13333333,0,4130.0267)" />
        <path
           id="path12-6"
           d="m 5346.3,3313.7 c -4.76,2.4 -9.55,4.7 -14.36,7 4.81,-2.3 9.6,-4.6 14.36,-7 m -44.79,27.2 c -0.02,0 -0.04,0 -0.06,0 0.02,0 0.04,0 0.06,0 m -0.19,0.2 c -11.98,15.7 -9.36,35.9 -1.87,56.6 -7.47,-20.7 -10.1,-40.8 1.87,-56.6 m 20.33,105 c 1.2,2.5 2.34,5 3.43,7.5 h 0.02 c -1.08,-2.5 -2.24,-5 -3.45,-7.5"
           style="fill:#ffffff;fill-opacity:1;fill-rule:nonzero;stroke:none"
           transform="matrix(0.13333333,0,0,-0.13333333,0,4130.0267)" />
        <path
           id="path13-1"
           d="m 5168.87,3218.1 c -138.73,0 -251.29,112.6 -251.29,251.3 0,138.8 112.56,251.3 251.29,251.3 94.36,0 176.63,-52 219.64,-129 -21.59,-45.8 -43.01,-91.8 -63.4,-138.1 -0.01,0 -0.01,0 -0.01,0 h -0.02 c -1.09,-2.5 -2.23,-5 -3.43,-7.5 -7.16,-15.1 -16.23,-31.9 -22.2,-48.4 -7.49,-20.7 -10.11,-40.9 1.87,-56.6 0.05,-0.1 0.09,-0.1 0.13,-0.2 0.02,0 0.04,0 0.06,0 4.9,-6.4 12.21,-12 22.57,-16.7 2.63,-1.1 5.25,-2.3 7.86,-3.5 4.81,-2.3 9.6,-4.6 14.36,-7 4.69,-2.3 9.36,-4.7 13.99,-7.1 -46.25,-54.1 -114.75,-88.5 -191.42,-88.5"
           style="fill:#545da2;fill-opacity:1;fill-rule:nonzero;stroke:none"
           transform="matrix(0.13333333,0,0,-0.13333333,0,4130.0267)" />
        <path
           id="path14-0"
           d="m 6603.35,4315.3 v -80 c -34.2303,33.3837 -67.4,46.5594 -147.096,45.5717 -68.5,-12.3 -101.5482,15.212 -119.4163,92.7921 -4.904,34.7721 -11.108,39.0434 -10.8638,97.5482 0.036,8.6127 -7.6901,11.7318 -3.6339,26.388 h 98.7 c 50.4,0 95.81,-20.4 128.91,-53.4 33,-33.1 53.4,-78.5 53.4,-128.9"
           style="fill:#22295e;fill-opacity:1;fill-rule:nonzero;stroke:none"
           transform="matrix(0.13333333,0,0,-0.13333333,0,4130.0267)" />
        <path
           id="path15-6"
           d="m 5559.78,4339.5 h -723.3 c -90.29,0 -164.2,69.6 -171,158.2 h 830.1 l 1.81,-3.6 c 25.5,-50.6 48.2,-102 64.89,-154.5 l -2.5,-0.1"
           style="fill:#545da2;fill-opacity:1;fill-rule:nonzero;stroke:none"
           transform="matrix(0.13333333,0,0,-0.13333333,0,4130.0267)" />
      </g>
    </g>
  </g>
</svg>
